<svg width="189" height="42" viewBox="0 0 189 42" fill="none" xmlns="http://www.w3.org/2000/svg">
<path opacity="0.5" d="M40.0652 2.25671L30.2601 36.9917C30.2102 37.1494 30.0108 37.1967 29.8945 37.0863L23.3301 30.8583L28.2492 13.4514C28.2991 13.2937 28.1495 13.1518 27.9833 13.1991L9.63617 17.8662L3.10498 11.6697C2.98865 11.5593 3.03851 11.3701 3.20469 11.3228L39.7993 2.00444C39.9655 1.97291 40.115 2.11481 40.0652 2.25671Z" fill="#00B37E"/>
<path opacity="0.5" d="M23.3297 30.858L20.8037 39.8452C20.7538 40.0029 20.5544 40.0502 20.4381 39.9398L0.0634003 20.6251C-0.0529313 20.5147 -0.00307518 20.3255 0.163113 20.2782L9.63583 17.8658L23.3297 30.858Z" fill="#00B37E"/>
<path d="M28.2484 13.4511L23.3292 30.858L9.63533 17.8659L27.9825 13.1988C28.1487 13.1515 28.2982 13.2934 28.2484 13.4511Z" fill="#00B37E"/>
<path d="M63.2741 29.5H59.3139L59.3389 26.5767H63.2741C64.2569 26.5767 65.0856 26.356 65.7602 25.9146C66.4348 25.4648 66.9428 24.811 67.2843 23.9532C67.6341 23.0953 67.809 22.0584 67.809 20.8425V19.9555C67.809 19.0227 67.7091 18.2023 67.5092 17.4944C67.3176 16.7865 67.0303 16.191 66.6472 15.7079C66.2641 15.2249 65.7935 14.8626 65.2355 14.621C64.6775 14.3712 64.0362 14.2462 63.3116 14.2462H59.2389V11.3104H63.3116C64.5276 11.3104 65.6394 11.5186 66.6472 11.9351C67.6633 12.3432 68.5419 12.9303 69.2832 13.6966C70.0244 14.4628 70.5949 15.3789 70.9947 16.445C71.4028 17.5027 71.6068 18.6812 71.6068 19.9805V20.8425C71.6068 22.1334 71.4028 23.3119 70.9947 24.3779C70.5949 25.444 70.0244 26.3601 69.2832 27.1264C68.5503 27.8843 67.6716 28.4714 66.6472 28.8879C65.6311 29.296 64.5067 29.5 63.2741 29.5ZM61.4377 11.3104V29.5H57.6898V11.3104H61.4377ZM81.6136 11.3104V29.5H77.8782V11.3104H81.6136ZM87.2104 11.3104V14.2462H72.3689V11.3104H87.2104ZM102.164 21.5171H97.492L97.467 18.9436H101.39C102.081 18.9436 102.647 18.8561 103.089 18.6812C103.53 18.498 103.859 18.2356 104.076 17.8942C104.301 17.5444 104.413 17.1196 104.413 16.6199C104.413 16.0535 104.305 15.5955 104.088 15.2457C103.88 14.8959 103.551 14.6419 103.101 14.4836C102.66 14.3254 102.089 14.2462 101.39 14.2462H98.7912V29.5H95.0434V11.3104H101.39C102.447 11.3104 103.393 11.4104 104.226 11.6103C105.067 11.8101 105.779 12.1141 106.362 12.5222C106.945 12.9303 107.39 13.4467 107.699 14.0713C108.007 14.6877 108.161 15.4206 108.161 16.2701C108.161 17.0197 107.99 17.7109 107.649 18.3439C107.316 18.9769 106.787 19.4932 106.062 19.893C105.346 20.2928 104.409 20.5135 103.251 20.5551L102.164 21.5171ZM102.002 29.5H96.4676L97.9292 26.5767H102.002C102.66 26.5767 103.197 26.4726 103.613 26.2644C104.03 26.0478 104.338 25.7563 104.538 25.3899C104.738 25.0234 104.838 24.6028 104.838 24.1281C104.838 23.5951 104.746 23.1328 104.563 22.7414C104.388 22.3499 104.105 22.0501 103.713 21.8419C103.322 21.6253 102.806 21.5171 102.164 21.5171H98.5539L98.5789 18.9436H103.076L103.938 19.9555C105.046 19.9388 105.937 20.1345 106.612 20.5426C107.295 20.9424 107.79 21.4629 108.098 22.1042C108.415 22.7455 108.573 23.4326 108.573 24.1656C108.573 25.3316 108.319 26.3143 107.811 27.1139C107.303 27.9051 106.558 28.5006 105.575 28.9003C104.6 29.3001 103.409 29.5 102.002 29.5ZM118.455 26.4517V20.4302C118.455 19.9971 118.384 19.6265 118.243 19.3183C118.101 19.0019 117.88 18.7562 117.58 18.5813C117.289 18.4064 116.91 18.3189 116.444 18.3189C116.044 18.3189 115.698 18.3897 115.407 18.5313C115.115 18.6645 114.89 18.8603 114.732 19.1185C114.574 19.3683 114.495 19.664 114.495 20.0054H110.897C110.897 19.4308 111.03 18.8853 111.297 18.3689C111.563 17.8525 111.95 17.3986 112.458 17.0072C112.966 16.6074 113.57 16.2951 114.27 16.0702C114.978 15.8453 115.769 15.7329 116.644 15.7329C117.693 15.7329 118.626 15.9078 119.442 16.2576C120.258 16.6074 120.899 17.1321 121.366 17.8317C121.841 18.5313 122.078 19.4058 122.078 20.4552V26.2394C122.078 26.9806 122.124 27.5886 122.215 28.0633C122.307 28.5297 122.44 28.9378 122.615 29.2876V29.5H118.98C118.805 29.1335 118.672 28.6755 118.58 28.1258C118.497 27.5678 118.455 27.0098 118.455 26.4517ZM118.93 21.2672L118.955 23.3036H116.943C116.469 23.3036 116.056 23.3577 115.707 23.466C115.357 23.5742 115.069 23.7283 114.845 23.9282C114.62 24.1198 114.453 24.3446 114.345 24.6028C114.245 24.861 114.195 25.1442 114.195 25.4523C114.195 25.7605 114.266 26.0395 114.407 26.2893C114.549 26.5309 114.753 26.7224 115.019 26.864C115.286 26.9973 115.598 27.0639 115.956 27.0639C116.498 27.0639 116.968 26.9556 117.368 26.7391C117.768 26.5225 118.076 26.256 118.293 25.9395C118.517 25.6231 118.634 25.3232 118.642 25.0401L119.592 26.5642C119.459 26.9057 119.275 27.2596 119.042 27.6261C118.817 27.9925 118.53 28.3382 118.18 28.663C117.83 28.9795 117.41 29.2418 116.918 29.45C116.427 29.6499 115.844 29.7499 115.169 29.7499C114.312 29.7499 113.533 29.5791 112.833 29.2377C112.142 28.8879 111.592 28.409 111.184 27.801C110.784 27.1847 110.584 26.4851 110.584 25.7022C110.584 24.9943 110.718 24.3654 110.984 23.8158C111.251 23.2661 111.642 22.8038 112.159 22.4291C112.683 22.0459 113.337 21.7586 114.12 21.5671C114.903 21.3672 115.811 21.2672 116.843 21.2672H118.93ZM128.374 18.8686V29.5H124.776V15.9828H128.149L128.374 18.8686ZM127.85 22.2666H126.875C126.875 21.2672 127.004 20.3677 127.262 19.5682C127.521 18.7603 127.883 18.0732 128.349 17.5069C128.816 16.9322 129.37 16.495 130.011 16.1951C130.66 15.887 131.385 15.7329 132.185 15.7329C132.818 15.7329 133.396 15.8245 133.921 16.0077C134.446 16.191 134.896 16.4825 135.27 16.8822C135.653 17.282 135.945 17.8109 136.145 18.4688C136.353 19.1268 136.457 19.9305 136.457 20.8799V29.5H132.834V20.8675C132.834 20.2678 132.751 19.8014 132.584 19.4683C132.418 19.1351 132.172 18.9019 131.847 18.7687C131.531 18.6271 131.139 18.5563 130.673 18.5563C130.19 18.5563 129.769 18.6521 129.411 18.8436C129.061 19.0352 128.77 19.3017 128.537 19.6432C128.312 19.9763 128.141 20.3677 128.024 20.8175C127.908 21.2672 127.85 21.7503 127.85 22.2666ZM142.791 10.2985V29.5H139.193V10.2985H142.791ZM151.311 15.9828L145.439 22.6789L142.291 25.8646L140.98 23.2661L143.478 20.0929L146.989 15.9828H151.311ZM147.576 29.5L143.578 23.2536L146.064 21.0798L151.723 29.5H147.576ZM156.658 15.9828V29.5H153.048V15.9828H156.658ZM152.823 12.4598C152.823 11.9351 153.006 11.502 153.372 11.1605C153.739 10.819 154.23 10.6483 154.847 10.6483C155.455 10.6483 155.942 10.819 156.308 11.1605C156.683 11.502 156.87 11.9351 156.87 12.4598C156.87 12.9845 156.683 13.4176 156.308 13.759C155.942 14.1005 155.455 14.2712 154.847 14.2712C154.23 14.2712 153.739 14.1005 153.372 13.759C153.006 13.4176 152.823 12.9845 152.823 12.4598ZM163.154 18.8686V29.5H159.556V15.9828H162.929L163.154 18.8686ZM162.63 22.2666H161.655C161.655 21.2672 161.784 20.3677 162.042 19.5682C162.301 18.7603 162.663 18.0732 163.129 17.5069C163.596 16.9322 164.15 16.495 164.791 16.1951C165.441 15.887 166.165 15.7329 166.965 15.7329C167.598 15.7329 168.176 15.8245 168.701 16.0077C169.226 16.191 169.676 16.4825 170.05 16.8822C170.433 17.282 170.725 17.8109 170.925 18.4688C171.133 19.1268 171.237 19.9305 171.237 20.8799V29.5H167.614V20.8675C167.614 20.2678 167.531 19.8014 167.364 19.4683C167.198 19.1351 166.952 18.9019 166.627 18.7687C166.311 18.6271 165.919 18.5563 165.453 18.5563C164.97 18.5563 164.549 18.6521 164.191 18.8436C163.841 19.0352 163.55 19.3017 163.317 19.6432C163.092 19.9763 162.921 20.3677 162.805 20.8175C162.688 21.2672 162.63 21.7503 162.63 22.2666ZM182.531 15.9828H185.791V29.0503C185.791 30.2829 185.517 31.3281 184.967 32.186C184.425 33.0521 183.668 33.7059 182.693 34.1473C181.719 34.5971 180.586 34.8219 179.295 34.8219C178.729 34.8219 178.129 34.747 177.496 34.5971C176.871 34.4472 176.272 34.214 175.697 33.8975C175.131 33.581 174.656 33.1812 174.273 32.6982L175.86 30.5744C176.276 31.0574 176.759 31.4322 177.309 31.6987C177.858 31.9736 178.466 32.111 179.133 32.111C179.782 32.111 180.332 31.9902 180.782 31.7487C181.231 31.5155 181.577 31.1699 181.819 30.7118C182.06 30.2621 182.181 29.7165 182.181 29.0752V19.106L182.531 15.9828ZM173.436 22.9038V22.6414C173.436 21.6087 173.561 20.6717 173.811 19.8305C174.069 18.981 174.431 18.2523 174.898 17.6443C175.372 17.0363 175.947 16.5658 176.622 16.2326C177.296 15.8995 178.058 15.7329 178.908 15.7329C179.807 15.7329 180.561 15.8995 181.169 16.2326C181.777 16.5658 182.277 17.0405 182.668 17.6568C183.06 18.2648 183.364 18.9852 183.58 19.8181C183.805 20.6426 183.98 21.5462 184.105 22.529V23.1037C183.98 24.0448 183.792 24.9193 183.543 25.7272C183.293 26.535 182.964 27.243 182.556 27.8509C182.148 28.4506 181.64 28.917 181.032 29.2501C180.432 29.5833 179.716 29.7499 178.883 29.7499C178.05 29.7499 177.296 29.5791 176.622 29.2377C175.955 28.8962 175.385 28.4173 174.91 27.801C174.435 27.1847 174.069 26.4601 173.811 25.6272C173.561 24.7944 173.436 23.8866 173.436 22.9038ZM177.034 22.6414V22.9038C177.034 23.4618 177.088 23.9823 177.196 24.4654C177.305 24.9484 177.471 25.3774 177.696 25.7521C177.929 26.1186 178.217 26.4059 178.558 26.6142C178.908 26.814 179.32 26.914 179.795 26.914C180.453 26.914 180.99 26.7766 181.406 26.5017C181.823 26.2185 182.135 25.8313 182.343 25.3399C182.552 24.8485 182.672 24.2822 182.706 23.6409V22.0043C182.689 21.4796 182.618 21.009 182.493 20.5926C182.368 20.1679 182.193 19.8056 181.969 19.5057C181.744 19.2059 181.452 18.9727 181.094 18.8061C180.736 18.6396 180.311 18.5563 179.82 18.5563C179.345 18.5563 178.933 18.6645 178.583 18.8811C178.242 19.0893 177.954 19.3766 177.721 19.7431C177.496 20.1096 177.325 20.5426 177.209 21.0424C177.092 21.5337 177.034 22.0668 177.034 22.6414Z" fill="#E1E1E6"/>
</svg>
