<svg class="svg-icon" style="width: 1em; height: 1em;vertical-align: middle;fill: currentColor;overflow: hidden;" viewBox="0 0 1024 1024" version="1.1" xmlns="http://www.w3.org/2000/svg"><path d="M626.08 395.424V316.992a20.864 20.864 0 0 0-20.832-20.832h-78.4a20.864 20.864 0 0 0-20.832 20.832v78.432c0 11.488 9.344 20.8 20.832 20.8h78.4a20.736 20.736 0 0 0 20.832-20.8z m159.168-99.168h-78.4a20.8 20.8 0 0 0-20.832 20.8v78.464c0 11.488 9.376 20.8 20.832 20.8h78.4a20.832 20.832 0 0 0 20.832-20.8V317.056a20.864 20.864 0 0 0-20.832-20.8zM311.264 607.744h-78.4a20.8 20.8 0 0 0-20.832 20.8v78.432c0 11.488 9.344 20.8 20.832 20.8h78.4a20.8 20.8 0 0 0 20.832-20.8v-78.432a20.8 20.8 0 0 0-20.832-20.8z m180 0h-78.4a20.8 20.8 0 0 0-20.832 20.8v78.432c0 11.488 9.344 20.8 20.832 20.8h78.4a20.8 20.8 0 0 0 20.832-20.8v-78.432a20.96 20.96 0 0 0-20.832-20.8z m-85.952-54.24a24 24 0 0 0 40.96-16.992V176a24 24 0 0 0-40.96-16.96l-180.256 180.256a24 24 0 0 0 0 33.92l180.256 180.288z m207.488-83.008a24 24 0 0 0-40.96 16.96V848c0 21.312 25.856 32.032 40.96 16.96l180.32-180.288a23.968 23.968 0 0 0 0-33.92l-180.32-180.256zM872 128h-4.032a23.936 23.936 0 0 0-24 24v720c0 13.312 10.688 24 24 24h4.032c13.312 0 24-10.688 24-24V152a23.936 23.936 0 0 0-24-24zM156.032 128H152a23.936 23.936 0 0 0-24 24v720c0 13.312 10.688 24 24 24h4.032c13.312 0 24-10.688 24-24V152a23.936 23.936 0 0 0-24-24z" fill="" /></svg>