<svg class="svg-icon" style="width: 1em; height: 1em;vertical-align: middle;fill: currentColor;overflow: hidden;" viewBox="0 0 1024 1024" version="1.1" xmlns="http://www.w3.org/2000/svg"><path d="M511.65 961C265.6 961 64.3 759.26 64.3 512.7S265.6 64.41 511.65 64.41 959 266.14 959 512.7 757.69 961 511.65 961zM656 856.61a377.28 377.28 0 0 0 198.65-199.12 371.82 371.82 0 0 0 0-289.58A377.18 377.18 0 0 0 656 168.79a369.15 369.15 0 0 0-288.64 0 377.09 377.09 0 0 0-198.71 199.12 371.82 371.82 0 0 0 0 289.58A377.12 377.12 0 0 0 367.33 856.6a369.21 369.21 0 0 0 288.64 0z" fill="#949DA6" /><path d="M473 555m0-37.5l0-249q0-37.5 37.5-37.5l0 0q37.5 0 37.5 37.5l0 249q0 37.5-37.5 37.5l0 0q-37.5 0-37.5-37.5Z" fill="#949DA6" /><path d="M796 554m-37.5 0l-249 0q-37.5 0-37.5-37.5l0 0q0-37.5 37.5-37.5l249 0q37.5 0 37.5 37.5l0 0q0 37.5-37.5 37.5Z" fill="#949DA6" /></svg>